<svg width="512" height="512" viewBox="0 0 512 512" fill="none" xmlns="http://www.w3.org/2000/svg">
  <defs>
    <linearGradient id="bg" x1="64" y1="48" x2="448" y2="464" gradientUnits="userSpaceOnUse">
      <stop stop-color="#45C0FF"/>
      <stop offset="1" stop-color="#2563EB"/>
    </linearGradient>
    <linearGradient id="panel" x1="132" y1="128" x2="380" y2="384" gradientUnits="userSpaceOnUse">
      <stop stop-color="#F8FBFF"/>
      <stop offset="1" stop-color="#DDEBFF"/>
    </linearGradient>
    <linearGradient id="accent" x1="160" y1="160" x2="352" y2="352" gradientUnits="userSpaceOnUse">
      <stop stop-color="#38BDF8"/>
      <stop offset="1" stop-color="#1D4ED8"/>
    </linearGradient>
    <filter id="shadow" x="76" y="88" width="360" height="336" filterUnits="userSpaceOnUse" color-interpolation-filters="sRGB">
      <feFlood flood-opacity="0" result="BackgroundImageFix"/>
      <feColorMatrix in="SourceAlpha" type="matrix" values="0 0 0 0 0 0 0 0 0 0 0 0 0 0 0 0 0 0 127 0" result="hardAlpha"/>
      <feOffset dy="14"/>
      <feGaussianBlur stdDeviation="18"/>
      <feComposite in2="hardAlpha" operator="out"/>
      <feColorMatrix type="matrix" values="0 0 0 0 0.047 0 0 0 0 0.192 0 0 0 0 0.431 0 0 0 0.28 0"/>
      <feBlend mode="normal" in2="BackgroundImageFix" result="effect1_dropShadow_1_1"/>
      <feBlend mode="normal" in="SourceGraphic" in2="effect1_dropShadow_1_1" result="shape"/>
    </filter>
  </defs>

  <rect x="32" y="32" width="448" height="448" rx="108" fill="url(#bg)"/>

  <circle cx="398" cy="120" r="24" fill="#FFFFFF" fill-opacity="0.16"/>
  <circle cx="113" cy="391" r="18" fill="#FFFFFF" fill-opacity="0.12"/>
  <circle cx="164" cy="102" r="10" fill="#FFFFFF" fill-opacity="0.18"/>

  <g filter="url(#shadow)">
    <rect x="112" y="110" width="288" height="292" rx="52" fill="url(#panel)"/>
    <rect x="112" y="110" width="288" height="52" rx="52" fill="#EFF6FF"/>
    <circle cx="150" cy="136" r="8" fill="#38BDF8"/>
    <circle cx="176" cy="136" r="8" fill="#60A5FA"/>
    <circle cx="202" cy="136" r="8" fill="#93C5FD"/>
  </g>

  <g>
    <path d="M176 218C176 194.804 194.804 176 218 176H294C317.196 176 336 194.804 336 218V294C336 317.196 317.196 336 294 336H218C194.804 336 176 317.196 176 294V218Z" fill="url(#accent)"/>
    <path d="M217 208H295C301.075 208 306 212.925 306 219V293C306 299.075 301.075 304 295 304H217C210.925 304 206 299.075 206 293V219C206 212.925 210.925 208 217 208Z" fill="#0F172A" fill-opacity="0.14"/>
  </g>

  <g>
    <path d="M231 262L252 283L297 228" stroke="#F8FAFC" stroke-width="22" stroke-linecap="round" stroke-linejoin="round"/>
  </g>

  <g>
    <circle cx="337" cy="333" r="58" fill="#0F172A" fill-opacity="0.14"/>
    <circle cx="330" cy="326" r="58" fill="#FFFFFF"/>
    <path d="M330 286L338.8 307.2L360 316L338.8 324.8L330 346L321.2 324.8L300 316L321.2 307.2L330 286Z" fill="#2563EB"/>
    <path d="M366 340L371.4 353.6L385 359L371.4 364.4L366 378L360.6 364.4L347 359L360.6 353.6L366 340Z" fill="#38BDF8"/>
    <path d="M292 340L295.6 349.4L305 353L295.6 356.6L292 366L288.4 356.6L279 353L288.4 349.4L292 340Z" fill="#60A5FA"/>
  </g>
</svg>
